<?xml version="1.0" standalone="no"?>
<!DOCTYPE svg PUBLIC "-//W3C//DTD SVG 20010904//EN"
 "http://www.w3.org/TR/2001/REC-SVG-20010904/DTD/svg10.dtd">
<svg version="1.0" xmlns="http://www.w3.org/2000/svg"
 viewBox="0 0 264.000000 257.000000"
 preserveAspectRatio="xMidYMid meet">
<g transform="translate(0.000000,257.000000) scale(0.100000,-0.100000)"
stroke="none">
<path d="M1454 2391 c-54 -24 -95 -79 -101 -134 -3 -23 16 -203 42 -400 25
-198 44 -365 41 -373 -11 -29 -35 -13 -50 34 -8 26 -40 128 -71 227 -166 531
-173 549 -207 582 -46 43 -70 53 -124 53 -97 0 -174 -77 -174 -174 0 -28 43
-181 124 -437 107 -339 122 -396 110 -409 -18 -19 -22 -14 -87 110 -309 592
-290 560 -343 585 -122 58 -256 -24 -256 -156 0 -49 21 -94 276 -580 42 -80
76 -153 76 -161 0 -9 -7 -21 -15 -28 -18 -15 -38 5 -157 157 -48 61 -99 120
-113 129 -76 49 -198 17 -244 -65 -26 -47 -31 -123 -11 -160 31 -60 646 -844
699 -894 124 -114 304 -178 506 -180 106 -1 129 2 200 26 138 47 258 130 339
235 25 33 130 219 232 414 102 194 205 389 229 433 23 44 66 126 94 182 49 97
52 105 41 138 -27 81 -183 109 -287 51 -72 -39 -82 -52 -163 -206 -39 -74 -74
-138 -78 -141 -5 -5 -141 9 -149 15 -1 1 -14 91 -28 201 -80 615 -106 812
-111 829 -11 35 -75 95 -112 106 -52 14 -81 12 -128 -9z m134 -78 c13 -8 27
-24 32 -36 6 -12 30 -182 55 -377 25 -195 52 -404 60 -465 8 -60 17 -126 20
-146 5 -36 4 -37 -32 -44 -110 -20 -240 -100 -320 -197 -84 -101 -141 -265
-99 -281 28 -11 45 4 57 47 43 162 180 301 348 352 52 16 201 18 251 4 19 -5
42 -8 51 -5 8 3 51 73 95 156 97 184 124 215 211 233 38 9 112 -10 120 -30 5
-14 -502 -990 -557 -1069 -71 -104 -203 -203 -320 -242 -43 -14 -86 -18 -195
-18 -121 0 -150 3 -210 24 -105 35 -179 78 -245 140 -32 31 -199 238 -370 461
-278 362 -310 408 -310 442 0 45 38 94 81 103 55 12 85 -11 186 -142 113 -148
127 -161 169 -169 63 -12 133 54 120 115 -3 14 -84 177 -181 362 -194 373
-199 387 -146 440 36 36 95 40 134 9 14 -11 60 -87 103 -168 42 -81 102 -194
132 -252 136 -262 149 -280 200 -280 37 0 78 27 92 60 15 37 21 16 -120 460
-63 195 -116 374 -118 397 -4 39 0 47 32 79 33 33 40 36 78 31 24 -3 50 -15
64 -29 16 -16 56 -131 138 -393 140 -445 142 -451 169 -470 38 -27 104 -15
134 24 20 25 16 75 -33 451 -46 354 -46 355 -28 390 30 56 94 70 152 33z"/>
</g>
</svg>