<?xml version="1.0" standalone="no"?>
<!DOCTYPE svg PUBLIC "-//W3C//DTD SVG 20010904//EN"
 "http://www.w3.org/TR/2001/REC-SVG-20010904/DTD/svg10.dtd">
<svg version="1.0" xmlns="http://www.w3.org/2000/svg"
 viewBox="0 0 400.000000 400.000000"
 preserveAspectRatio="xMidYMid meet">
<g transform="translate(0.000000,400.000000) scale(0.100000,-0.100000)"
 stroke="none">
<path d="M1805 3849 c-229 -22 -448 -86 -665 -196 -194 -98 -308 -181 -470
-343 -288 -288 -449 -596 -522 -1000 -29 -162 -29 -438 0 -600 53 -292 154
-535 320 -770 86 -122 309 -345 432 -433 124 -88 357 -204 501 -250 482 -155
968 -117 1418 110 195 98 309 181 471 343 288 288 449 596 522 1000 29 162 29
438 0 600 -73 404 -234 712 -522 1000 -162 162 -276 245 -470 343 -325 164
-664 229 -1015 196z m412 -114 c263 -37 510 -132 733 -280 390 -259 651 -658
747 -1140 25 -128 25 -482 0 -610 -111 -561 -446 -1006 -942 -1253 -224 -112
-499 -181 -717 -182 l-78 0 0 1740 0 1740 78 0 c42 0 123 -7 179 -15z"/>
</g>
</svg>