<?xml version="1.0" standalone="no"?>
<!DOCTYPE svg PUBLIC "-//W3C//DTD SVG 20010904//EN"
 "http://www.w3.org/TR/2001/REC-SVG-20010904/DTD/svg10.dtd">
<svg version="1.0" xmlns="http://www.w3.org/2000/svg"
  viewBox="0 0 256.000000 256.000000"
 preserveAspectRatio="xMidYMid meet">
<g transform="translate(0.000000,256.000000) scale(0.100000,-0.100000)"
 stroke="none">
<path d="M1242 2468 c-17 -17 -17 -389 0 -406 20 -20 65 -14 82 10 13 18 16
55 16 193 0 138 -3 175 -16 193 -17 24 -62 30 -82 10z"/>
<path d="M372 2108 c-7 -7 -12 -25 -12 -42 0 -24 17 -47 93 -123 76 -76 99
-93 123 -93 37 0 54 16 54 50 0 19 -25 50 -98 123 -99 98 -130 115 -160 85z"/>
<path d="M2027 2022 c-100 -101 -117 -133 -82 -162 36 -30 65 -15 162 83 98
97 113 126 83 162 -29 35 -62 18 -163 -83z"/>
<path d="M625 1745 c-22 -8 -41 -15 -41 -15 -2 0 -142 -214 -241 -369 -64
-100 -73 -119 -73 -161 0 -55 -55 12 528 -645 210 -237 396 -440 414 -453 41
-29 95 -29 136 1 18 12 204 215 414 452 580 654 528 590 528 642 0 55 7 42
-166 309 -96 148 -153 225 -171 235 -42 21 -1270 25 -1328 4z m548 -108 c-4
-8 -55 -87 -112 -175 l-105 -162 -56 88 c-31 48 -82 126 -113 175 l-57 87 226
0 c186 0 224 -2 217 -13z m634 -24 c-14 -21 -65 -100 -114 -176 l-89 -138
-105 162 c-57 89 -108 168 -112 175 -7 12 30 14 218 14 l225 0 -23 -37z
m-1067 -185 c58 -89 107 -165 108 -170 2 -4 -96 -8 -218 -8 -122 0 -220 4
-218 8 7 18 213 332 218 332 3 0 52 -73 110 -162z m652 -6 l107 -167 -110 -3
c-60 -1 -158 -1 -218 0 l-110 3 107 167 c59 92 109 167 112 167 3 0 53 -75
112 -167z m651 2 c60 -91 106 -168 104 -170 -2 -3 -102 -3 -221 -2 l-216 3
107 167 c60 92 110 168 113 168 3 0 54 -75 113 -166z m-1001 -696 c70 -227
126 -413 125 -414 -1 0 -168 185 -370 413 l-368 413 243 0 243 0 127 -412z
m463 335 c-14 -43 -68 -221 -122 -395 -53 -175 -100 -318 -103 -318 -3 0 -50
143 -103 318 -54 174 -108 352 -122 395 l-23 77 248 0 248 0 -23 -77z m258
-336 c-202 -228 -369 -414 -370 -413 -1 1 56 187 125 414 l127 412 243 0 243
0 -368 -413z"/>
<path d="M12 1238 c-7 -7 -12 -27 -12 -45 0 -42 21 -53 104 -53 53 0 70 4 86
20 24 24 25 38 4 68 -13 19 -24 22 -93 22 -46 0 -82 -5 -89 -12z"/>
<path d="M2366 1228 c-21 -30 -20 -44 4 -68 16 -16 33 -20 86 -20 83 0 104 11
104 53 0 49 -14 57 -101 57 -69 0 -80 -3 -93 -22z"/>
</g>
</svg>
