<?xml version="1.0" standalone="no"?>
<!DOCTYPE svg PUBLIC "-//W3C//DTD SVG 20010904//EN"
 "http://www.w3.org/TR/2001/REC-SVG-20010904/DTD/svg10.dtd">
<svg version="1.0" xmlns="http://www.w3.org/2000/svg"
 viewBox="0 0 356.000000 426.000000"
 preserveAspectRatio="xMidYMid meet">
<g transform="translate(0.000000,426.000000) scale(0.100000,-0.100000)"
 stroke="none">
<path d="M985 4153 c-136 -49 -213 -167 -203 -312 9 -119 72 -206 186 -259 45
-20 65 -24 130 -20 151 7 266 105 293 252 17 95 -22 207 -97 278 -72 67 -213
95 -309 61z m190 -142 c63 -36 97 -121 76 -192 -46 -152 -246 -171 -319 -29
-50 96 5 214 112 241 40 10 93 2 131 -20z"/>
<path d="M886 3446 c-51 -19 -94 -61 -118 -114 -18 -40 -20 -81 -29 -500 l-9
-457 -76 -245 c-41 -135 -88 -285 -104 -335 -130 -408 -134 -424 -121 -478 34
-146 173 -215 308 -153 84 39 87 46 233 521 90 293 122 389 129 398 6 6 298
-49 309 -58 2 -2 23 -86 48 -188 53 -217 75 -261 150 -298 147 -72 315 26 316
185 0 54 -113 541 -137 585 -17 33 -61 74 -101 94 -17 9 -108 32 -202 51 -94
20 -203 43 -243 52 l-72 16 6 196 c4 107 9 197 11 199 2 2 95 -33 207 -78 113
-45 225 -84 250 -87 63 -6 114 13 166 61 51 47 78 122 67 184 -8 51 -47 117
-83 142 -16 12 -193 87 -393 167 -388 155 -435 168 -512 140z m454 -262 c214
-85 372 -154 383 -166 40 -47 4 -128 -58 -128 -19 0 -143 44 -285 101 -146 57
-263 99 -278 97 -14 -2 -33 -14 -43 -28 -15 -22 -18 -60 -22 -318 -6 -290 -6
-293 16 -317 19 -21 51 -30 222 -65 295 -61 354 -76 375 -95 13 -12 29 -62 51
-154 17 -75 44 -189 60 -253 35 -142 35 -152 4 -183 -30 -31 -82 -33 -112 -5
-25 23 -19 3 -79 253 -38 159 -51 201 -68 212 -12 7 -55 20 -96 29 -73 15
-433 91 -478 101 -12 3 -31 14 -42 25 -19 19 -20 34 -20 208 0 103 3 320 7
482 l6 295 28 27 c15 16 36 28 45 28 10 0 183 -66 384 -146z m-479 -1034 c24
-11 54 -20 66 -20 12 0 25 -4 28 -10 6 -9 -21 -102 -95 -335 -21 -66 -62 -196
-91 -290 -29 -94 -61 -180 -72 -192 -27 -30 -82 -31 -114 -1 -25 23 -29 57
-14 104 6 16 58 184 116 373 111 358 122 391 129 391 2 0 23 -9 47 -20z"/>
<path d="M2450 1770 c-20 -20 -20 -33 -20 -809 l0 -790 22 -15 c19 -14 77 -16
425 -16 390 0 404 1 423 20 20 20 20 33 20 805 0 772 0 785 -20 805 -19 19
-33 20 -425 20 -392 0 -406 -1 -425 -20z m735 -805 l0 -690 -310 0 -310 0 -3
680 c-1 374 0 686 3 693 3 10 71 12 312 10 l308 -3 0 -690z"/>
<path d="M1345 1365 l-25 -24 0 -574 c0 -566 0 -575 21 -601 l20 -26 409 0
409 0 20 26 c21 26 21 35 21 601 l0 574 -25 24 -24 25 -401 0 -401 0 -24 -25z
m735 -605 l0 -490 -310 0 -310 0 0 490 0 490 310 0 310 0 0 -490z"/>
<path d="M270 983 c-8 -3 -23 -12 -32 -21 -17 -14 -18 -46 -18 -399 0 -370 1
-384 20 -403 19 -19 33 -20 423 -20 348 0 406 2 425 16 l22 15 0 388 c0 382 0
388 -21 407 -20 18 -43 19 -413 21 -215 1 -398 -1 -406 -4z m708 -420 l-3
-288 -310 0 -310 0 -3 288 -2 287 315 0 315 0 -2 -287z"/>
</g>
</svg>
