<?xml version="1.0" standalone="no"?>
<!DOCTYPE svg PUBLIC "-//W3C//DTD SVG 20010904//EN"
 "http://www.w3.org/TR/2001/REC-SVG-20010904/DTD/svg10.dtd">
<svg version="1.0" xmlns="http://www.w3.org/2000/svg"
 viewBox="0 0 225.000000 225.000000"
 preserveAspectRatio="xMidYMid meet">
<g transform="translate(0.000000,225.000000) scale(0.100000,-0.100000)"
 stroke="none">
<path d="M422 2059 c-103 -17 -222 -100 -277 -194 -52 -89 -55 -125 -55 -575
0 -450 3 -486 55 -575 36 -60 116 -132 183 -163 46 -22 75 -27 150 -30 l92 -4
0 -148 c0 -122 3 -151 16 -164 36 -37 48 -30 416 242 l97 71 383 3 383 3 67
33 c107 53 191 158 218 274 5 25 10 221 10 458 0 449 -4 488 -55 576 -57 98
-171 175 -286 194 -79 12 -1320 12 -1397 -1z m1463 -136 c50 -26 118 -98 142
-150 16 -35 18 -76 18 -478 l0 -440 -24 -53 c-14 -31 -43 -70 -72 -96 -83 -75
-92 -76 -515 -76 l-372 0 -188 -138 -189 -139 -3 121 c-3 155 -4 156 -141 156
-62 0 -114 6 -144 16 -60 20 -131 84 -165 148 l-27 51 0 445 c0 501 -3 479 77
566 41 45 79 70 128 85 14 4 342 7 730 6 702 -2 705 -2 745 -24z"/>
<path d="M486 1644 c-9 -8 -16 -26 -16 -39 0 -57 -24 -55 654 -55 591 0 624 1
639 18 22 24 21 55 -1 75 -17 15 -76 17 -640 17 -551 0 -622 -2 -636 -16z"/>
<path d="M487 1312 c-20 -22 -22 -63 -5 -80 9 -9 165 -12 639 -12 557 0 629 2
643 16 21 21 20 57 -2 77 -17 15 -76 17 -639 17 -588 0 -621 -1 -636 -18z"/>
<path d="M492 984 c-24 -17 -30 -62 -10 -82 9 -9 166 -12 645 -12 615 0 633 1
643 19 16 31 12 59 -12 75 -20 14 -97 16 -633 16 -536 0 -613 -2 -633 -16z"/>
</g>
</svg>
