<?xml version="1.0" standalone="no"?>
<!DOCTYPE svg PUBLIC "-//W3C//DTD SVG 20010904//EN"
 "http://www.w3.org/TR/2001/REC-SVG-20010904/DTD/svg10.dtd">
<svg version="1.0" xmlns="http://www.w3.org/2000/svg"
  viewBox="0 0 654.000000 605.000000"
 preserveAspectRatio="xMidYMid meet">
<g transform="translate(0.000000,605.000000) scale(0.100000,-0.100000)"
 stroke="none">
<path d="M1179 5521 c-149 -13 -280 -104 -361 -251 l-35 -65 -7 -1338 c-6
-1270 -8 -1339 -25 -1380 -10 -23 -107 -231 -216 -462 l-196 -419 3 -221 3
-221 32 -65 c61 -123 181 -211 328 -241 46 -9 657 -12 2545 -12 2346 -1 2489
0 2554 17 183 47 304 168 336 337 5 29 10 131 10 228 l0 175 -216 461 -217
461 -7 1340 c-7 1325 -7 1340 -27 1380 -65 126 -157 211 -278 257 l-60 23
-2045 1 c-1125 1 -2079 -2 -2121 -5z m4141 -1641 l0 -1250 -2080 0 -2080 0 0
988 c0 544 3 1104 7 1245 l6 256 61 4 c34 2 967 4 2074 5 l2012 2 0 -1250z
m211 -1885 l107 -230 -72 -8 c-82 -8 -4701 -5 -4710 4 -3 3 42 110 101 237
l107 232 2180 -2 2181 -3 106 -230z m212 -659 c25 -12 21 -30 -14 -65 l-31
-31 -2462 0 -2462 0 -27 42 c-15 23 -24 44 -21 47 12 12 949 17 2944 16 1130
0 2063 -4 2073 -9z"/>
<path d="M3438 4948 c-69 -18 -103 -61 -142 -183 -86 -267 -435 -1491 -472
-1655 -38 -167 -31 -212 43 -263 75 -52 139 -57 219 -20 70 34 101 129 419
1263 167 595 185 669 176 712 -14 62 -48 105 -103 132 -55 27 -80 30 -140 14z"/>
<path d="M2493 4700 c-35 -8 -286 -161 -713 -433 -420 -268 -430 -277 -430
-386 0 -93 20 -115 224 -250 416 -273 859 -543 923 -562 125 -36 237 47 237
176 0 114 -16 128 -476 421 -272 172 -328 210 -325 219 2 5 91 65 198 133 322
204 512 329 555 366 47 40 69 98 59 156 -9 50 -57 125 -92 143 -36 18 -119 27
-160 17z"/>
<path d="M3909 4699 c-113 -17 -181 -100 -165 -202 16 -98 49 -127 381 -335
116 -72 262 -165 324 -206 l115 -74 -145 -94 c-79 -52 -229 -148 -332 -213
-301 -192 -337 -226 -337 -320 1 -153 136 -236 276 -171 78 36 491 291 877
540 198 127 237 167 237 241 0 68 -18 111 -62 150 -45 42 -268 190 -503 335
-477 295 -559 343 -588 349 -17 4 -53 4 -78 0z"/>
</g>
</svg>