<?xml version="1.0" standalone="no"?>
<!DOCTYPE svg PUBLIC "-//W3C//DTD SVG 20010904//EN"
 "http://www.w3.org/TR/2001/REC-SVG-20010904/DTD/svg10.dtd">
<svg version="1.0" xmlns="http://www.w3.org/2000/svg"
 viewBox="0 100 700 600.000000"
 preserveAspectRatio="xMidYMid meet">
<g transform="translate(0.000000,752.000000) scale(0.100000,-0.100000)"
 stroke="none">
<path d="M2160 5504 c-95 -25 -168 -86 -218 -179 l-27 -50 -5 -1005 -5 -1005
-162 -347 -163 -346 0 -151 c0 -127 3 -159 20 -205 42 -111 138 -184 271 -205
89 -15 3689 -15 3778 0 133 21 229 94 271 205 17 46 20 78 20 205 l0 150 -162
347 -163 347 -5 1005 -5 1005 -27 50 c-51 95 -123 154 -223 180 -52 13 -242
15 -1600 14 -1323 0 -1548 -2 -1595 -15z m3158 -1226 l2 -938 -1560 0 -1560 0
0 933 c0 514 3 937 7 940 3 4 704 6 1557 5 l1551 -3 3 -937z m157 -1409 c44
-95 82 -176 83 -180 2 -5 -792 -9 -1798 -9 -1033 0 -1800 4 -1798 9 2 5 39 86
83 180 l80 171 1635 0 1636 0 79 -171z m175 -508 c0 -11 -12 -29 -26 -40 l-27
-21 -1843 0 -1843 0 -20 26 c-12 15 -21 33 -21 40 0 12 300 14 1890 14 1860 0
1890 0 1890 -19z"/>
<path d="M3881 5072 c-19 -9 -42 -28 -52 -42 -10 -14 -106 -336 -214 -717
-218 -763 -213 -735 -150 -798 41 -40 90 -53 146 -36 84 25 71 -7 285 741 124
434 196 701 196 729 -1 104 -117 172 -211 123z"/>
<path d="M3140 4868 c-393 -240 -768 -482 -782 -505 -33 -58 -27 -134 15 -177
17 -19 208 -143 422 -277 373 -232 392 -243 440 -243 91 0 145 52 145 142 0
83 -16 97 -327 291 -156 97 -283 179 -283 182 0 3 128 86 285 184 166 103 294
189 306 206 43 60 34 141 -21 194 -24 23 -41 29 -87 33 -52 3 -64 0 -113 -30z"/>
<path d="M4203 4880 c-69 -42 -89 -116 -51 -190 21 -42 44 -58 308 -223 157
-98 286 -181 287 -185 2 -4 -124 -86 -280 -183 -311 -194 -327 -208 -327 -291
0 -90 54 -142 145 -142 48 0 67 11 440 243 215 134 405 258 423 277 31 33 38
56 33 119 -6 64 -26 80 -426 329 -214 134 -400 248 -412 255 -34 17 -104 13
-140 -9z"/>
</g>
</svg>
