<?xml version="1.0" standalone="no"?>
<!DOCTYPE svg PUBLIC "-//W3C//DTD SVG 20010904//EN"
 "http://www.w3.org/TR/2001/REC-SVG-20010904/DTD/svg10.dtd">
<svg version="1.0" xmlns="http://www.w3.org/2000/svg"
 viewBox="0 0 495.000000 503.000000"
 preserveAspectRatio="xMidYMid meet">
<g transform="translate(0.000000,503.000000) scale(0.100000,-0.100000)"
 stroke="none">
<path d="M1110 4901 c-122 -17 -213 -43 -236 -67 -25 -24 -31 -58 -15 -84 6
-7 168 -173 362 -367 l353 -352 -32 -123 c-83 -317 -88 -331 -108 -340 -21 -9
-430 -118 -442 -118 -4 0 -165 158 -357 351 -199 199 -364 357 -383 365 -72
32 -112 -30 -147 -226 -65 -367 63 -760 331 -1022 227 -222 515 -338 840 -338
l89 0 1155 -1153 c770 -769 1175 -1166 1214 -1192 376 -243 872 -111 1070 284
54 107 77 205 78 331 0 157 -40 294 -122 417 -18 26 -555 571 -1193 1209
l-1160 1162 7 51 c9 69 -10 241 -39 356 -74 291 -283 563 -550 713 -91 51
-209 97 -315 122 -94 23 -309 34 -400 21z m391 -177 c290 -73 536 -276 664
-547 71 -150 87 -224 92 -430 l5 -177 1168 -1168 c819 -819 1180 -1187 1208
-1230 59 -92 83 -169 89 -290 4 -80 2 -118 -12 -170 -71 -266 -293 -442 -560
-445 -108 -2 -175 13 -275 61 -73 34 -100 61 -1267 1225 l-1192 1190 -93 -6
c-610 -43 -1121 458 -1084 1062 10 179 -26 197 350 -178 302 -301 335 -331
365 -331 43 0 592 148 609 164 16 16 162 554 162 598 0 30 -29 62 -327 360
-217 217 -322 329 -312 332 65 23 280 13 410 -20z"/>
<path d="M4028 1246 c-105 -30 -199 -110 -249 -212 -145 -294 97 -627 423
-582 211 29 358 212 346 429 -9 150 -96 276 -236 342 -56 26 -81 32 -152 34
-50 1 -105 -3 -132 -11z m227 -164 c188 -96 190 -363 4 -456 -128 -64 -286
-10 -345 119 -63 135 2 298 141 350 53 20 149 14 200 -13z"/>
</g>
</svg>