<?xml version="1.0" standalone="no"?>
<!DOCTYPE svg PUBLIC "-//W3C//DTD SVG 20010904//EN"
 "http://www.w3.org/TR/2001/REC-SVG-20010904/DTD/svg10.dtd">
<svg version="1.0" xmlns="http://www.w3.org/2000/svg"
 viewBox="0 0 225.000000 225.000000"
 preserveAspectRatio="xMidYMid meet">
<g transform="translate(0.000000,225.000000) scale(0.100000,-0.100000)"
 stroke="none">
<path d="M200 2173 c0 -31 58 -928 101 -1553 13 -193 26 -320 33 -327 13 -14
703 -231 761 -239 32 -5 108 14 385 95 446 131 427 124 439 169 6 20 15 109
20 197 6 88 33 501 61 919 28 417 49 760 48 762 -2 2 -419 4 -926 6 l-922 3 0
-32z m1249 -60 l512 -6 -6 -71 c-3 -39 -24 -343 -46 -676 -46 -699 -68 -1013
-72 -1015 -4 -2 -205 -62 -468 -139 l-256 -74 -348 108 c-191 60 -351 112
-355 117 -4 4 -19 193 -34 418 -67 1002 -86 1292 -86 1318 l0 27 323 0 c178 0
554 -3 836 -7z"/>
<path d="M515 1790 c2 -8 7 -75 11 -147 l7 -133 434 0 435 0 -7 -52 c-12 -97
19 -88 -291 -88 l-274 0 0 -160 0 -160 266 0 267 0 -6 -47 c-4 -27 -9 -78 -13
-115 -7 -68 -7 -68 -43 -78 -20 -5 -67 -19 -106 -29 l-70 -20 -112 35 -113 35
0 94 0 95 -155 0 -155 0 1 -67 c0 -38 6 -135 12 -217 l12 -149 60 -17 c33 -10
146 -43 252 -74 l192 -56 88 26 c201 58 404 126 409 137 4 12 124 1191 121
1194 -1 0 -278 3 -614 5 -541 3 -612 1 -608 -12z m1123 -85 c7 -7 -98 -1039
-106 -1046 -4 -4 -98 -35 -209 -69 l-202 -62 -178 52 c-98 29 -192 57 -210 62
-17 5 -34 16 -37 26 -3 9 -8 72 -12 140 l-7 122 65 0 65 0 7 -72 c3 -39 11
-77 17 -85 7 -7 74 -33 151 -57 l139 -44 132 35 c73 20 139 42 148 50 12 10
20 57 34 179 16 154 16 167 1 182 -15 15 -50 17 -271 20 l-255 4 0 67 0 68
182 6 c99 4 223 7 275 7 68 0 93 3 93 13 0 6 9 71 20 142 11 72 20 136 20 143
0 9 -96 12 -445 12 l-445 0 0 62 0 61 512 -7 c282 -3 514 -9 516 -11z"/>
</g>
</svg>