<?xml version="1.0" standalone="no"?>
<!DOCTYPE svg PUBLIC "-//W3C//DTD SVG 20010904//EN"
 "http://www.w3.org/TR/2001/REC-SVG-20010904/DTD/svg10.dtd">
<svg version="1.0" xmlns="http://www.w3.org/2000/svg"
 viewBox="0 0 2048.000000 2048.000000"
 preserveAspectRatio="xMidYMid meet">
<g transform="translate(0.000000,2048.000000) scale(0.100000,-0.100000)"
 stroke="none">
<path d="M13216 19642 c-3 -5 -56 -12 -118 -16 -187 -11 -376 -55 -528 -123
-30 -13 -68 -31 -85 -38 -66 -29 -264 -129 -330 -166 -38 -21 -84 -45 -102
-54 -17 -8 -52 -28 -76 -45 -25 -16 -50 -30 -56 -30 -6 0 -11 -4 -11 -9 0 -5
-17 -17 -37 -26 -20 -10 -58 -33 -84 -51 -25 -19 -49 -34 -52 -34 -4 0 -44
-27 -90 -60 -47 -33 -89 -60 -95 -60 -6 0 -16 -9 -22 -20 -6 -11 -16 -20 -22
-20 -6 0 -49 -29 -97 -65 -47 -35 -106 -79 -130 -97 -52 -38 -214 -171 -291
-238 -219 -190 -561 -529 -601 -593 -9 -16 -26 -35 -38 -43 -11 -8 -21 -21
-21 -29 0 -8 -8 -20 -18 -27 -9 -7 -24 -23 -32 -35 -8 -11 -44 -59 -78 -105
-35 -45 -74 -96 -85 -112 -12 -16 -50 -65 -84 -109 -35 -44 -63 -83 -63 -86 0
-3 -14 -22 -30 -41 -16 -19 -30 -38 -30 -41 0 -3 -221 -9 -492 -13 -301 -4
-496 -10 -502 -16 -6 -6 -28 -10 -51 -10 -117 -1 -237 -61 -274 -138 -12 -23
-21 -49 -21 -56 0 -8 -4 -16 -9 -18 -45 -16 -46 -848 -2 -953 5 -11 19 -69 31
-130 12 -60 25 -114 30 -120 4 -5 18 -46 30 -90 12 -44 26 -84 30 -90 4 -5 17
-39 29 -75 13 -36 26 -67 30 -70 4 -3 15 -27 25 -55 10 -27 29 -72 41 -100 12
-27 28 -75 35 -105 7 -30 16 -59 20 -65 12 -15 39 -159 46 -239 3 -39 10 -80
16 -92 23 -48 -32 -511 -63 -522 -5 -2 -9 -9 -9 -15 0 -18 -43 -151 -51 -157
-3 -3 -17 -30 -30 -60 -13 -30 -29 -61 -36 -68 -7 -7 -13 -19 -13 -25 0 -7
-16 -36 -35 -64 -19 -29 -35 -55 -35 -59 0 -4 -15 -30 -34 -58 -18 -28 -37
-61 -40 -73 -4 -13 -11 -23 -16 -23 -5 0 -18 -19 -30 -42 -11 -24 -35 -68 -52
-98 -36 -64 -73 -133 -153 -285 -32 -60 -61 -112 -64 -115 -4 -3 -18 -30 -30
-60 -13 -30 -27 -57 -30 -60 -4 -3 -18 -30 -30 -60 -13 -30 -27 -57 -30 -60
-4 -3 -18 -30 -30 -60 -13 -30 -27 -57 -30 -60 -4 -3 -18 -30 -30 -60 -13 -30
-27 -57 -30 -60 -4 -3 -17 -29 -30 -58 -12 -30 -56 -124 -97 -210 -42 -87 -88
-184 -103 -217 -15 -33 -38 -82 -51 -110 -39 -83 -70 -159 -70 -172 0 -7 -4
-13 -8 -13 -4 0 -16 -24 -27 -52 -10 -29 -29 -74 -42 -99 -13 -26 -23 -52 -23
-59 0 -7 -10 -33 -23 -59 -13 -25 -31 -73 -41 -106 -11 -33 -22 -64 -26 -70
-5 -5 -18 -44 -30 -85 -13 -41 -26 -79 -30 -85 -4 -5 -18 -46 -30 -90 -12 -44
-26 -84 -30 -90 -5 -5 -16 -40 -26 -77 -37 -139 -41 -99 -48 465 -4 292 -11
552 -16 577 -5 25 -14 342 -20 705 -17 1079 -31 1629 -41 1647 -5 10 -9 59 -9
110 0 208 -38 818 -51 833 -5 5 -9 26 -9 47 0 67 -42 383 -51 386 -5 2 -9 13
-9 25 0 32 -39 239 -50 262 -5 11 -18 63 -30 115 -12 52 -25 100 -29 105 -5 6
-19 55 -32 110 -13 55 -26 102 -30 105 -3 3 -16 46 -29 95 -13 50 -26 92 -30
95 -3 3 -14 34 -24 70 -10 36 -26 83 -36 105 -9 22 -25 65 -35 95 -10 30 -24
64 -30 75 -7 11 -21 44 -31 73 -10 28 -22 52 -26 52 -4 0 -8 6 -8 14 0 15 -39
108 -49 116 -3 3 -19 32 -36 64 -48 95 -56 108 -91 157 -19 26 -34 50 -34 55
0 4 -7 14 -15 23 -8 9 -33 39 -55 68 -64 84 -159 181 -260 265 -52 44 -102 83
-110 86 -8 3 -47 28 -86 54 -74 50 -116 74 -244 138 -132 65 -203 97 -270 121
-36 12 -69 26 -75 30 -5 4 -44 17 -85 29 -41 11 -83 25 -92 31 -10 5 -62 18
-115 30 -54 11 -107 24 -118 29 -28 12 -121 27 -245 41 -58 6 -113 15 -122 20
-10 5 -109 12 -220 15 -192 5 -320 -2 -468 -25 -214 -34 -266 -44 -275 -51 -5
-4 -41 -15 -80 -24 -38 -9 -90 -25 -115 -35 -25 -11 -70 -29 -100 -41 -100
-41 -272 -129 -300 -155 -9 -8 -21 -15 -25 -15 -5 0 -35 -18 -66 -40 -32 -22
-62 -40 -68 -40 -6 0 -15 -9 -21 -20 -6 -11 -15 -20 -21 -20 -48 0 -443 -396
-516 -517 -10 -17 -36 -57 -58 -89 -22 -32 -54 -84 -71 -114 -45 -79 -170
-330 -179 -360 -4 -14 -13 -34 -20 -46 -8 -12 -23 -54 -36 -95 -12 -41 -25
-78 -29 -84 -4 -5 -17 -46 -29 -90 -12 -44 -26 -88 -31 -97 -5 -10 -19 -61
-30 -115 -11 -54 -25 -106 -30 -115 -5 -9 -19 -75 -30 -145 -12 -70 -25 -137
-30 -148 -9 -20 -35 -199 -45 -315 -4 -36 -10 -74 -15 -85 -10 -23 -25 -209
-40 -485 -6 -107 -13 -235 -16 -285 -9 -146 -7 -594 4 -811 17 -338 43 -688
53 -699 5 -5 9 -24 9 -42 0 -57 41 -407 50 -428 4 -11 18 -96 31 -190 12 -93
25 -174 29 -180 4 -5 18 -77 30 -160 13 -82 26 -152 29 -155 4 -3 17 -63 30
-135 13 -71 26 -134 30 -140 3 -5 18 -64 33 -130 45 -204 78 -339 87 -360 5
-11 19 -63 31 -115 12 -52 25 -103 30 -112 5 -9 19 -59 31 -110 12 -51 25 -95
28 -98 4 -3 17 -48 30 -100 13 -52 28 -100 33 -106 4 -6 17 -49 29 -95 11 -46
24 -88 29 -94 4 -5 18 -46 30 -90 12 -44 26 -84 30 -90 4 -5 18 -46 30 -90 12
-44 26 -84 30 -90 4 -5 18 -46 30 -90 12 -43 28 -88 35 -100 7 -11 21 -49 31
-85 10 -36 23 -74 30 -85 6 -11 20 -47 30 -80 10 -33 20 -62 24 -65 3 -3 17
-39 32 -80 35 -101 75 -208 92 -245 8 -16 19 -48 26 -70 7 -22 19 -51 26 -65
13 -24 55 -129 96 -240 11 -30 24 -60 29 -65 4 -6 17 -37 29 -70 21 -57 40
-102 96 -222 13 -28 24 -55 24 -60 0 -4 11 -30 24 -58 13 -27 33 -71 43 -97
10 -27 21 -48 26 -48 4 0 7 -6 7 -12 0 -7 11 -38 23 -68 22 -52 40 -91 107
-235 81 -172 109 -235 131 -285 12 -30 26 -57 30 -60 4 -3 17 -29 28 -57 18
-45 223 -473 268 -558 8 -16 81 -158 161 -315 80 -157 148 -287 151 -290 4 -3
15 -25 26 -50 11 -25 22 -47 26 -50 4 -3 14 -21 23 -40 9 -19 36 -71 61 -115
24 -44 57 -105 73 -135 56 -106 132 -241 232 -415 14 -24 41 -72 61 -107 20
-35 49 -85 64 -113 16 -27 33 -51 37 -53 4 -2 8 -9 8 -15 0 -6 17 -38 38 -71
42 -68 48 -78 94 -156 17 -30 35 -56 40 -58 4 -2 8 -8 8 -14 0 -6 17 -36 38
-67 21 -31 41 -63 45 -73 3 -9 31 -53 61 -97 31 -44 56 -83 56 -85 0 -3 25
-41 55 -85 30 -44 55 -83 55 -87 0 -3 27 -43 60 -89 33 -46 60 -86 60 -90 0
-3 28 -46 63 -95 103 -147 161 -230 182 -264 26 -41 140 -196 160 -217 8 -9
15 -19 15 -22 0 -4 34 -51 75 -105 42 -53 82 -106 90 -117 53 -70 207 -264
229 -286 14 -15 26 -30 26 -34 0 -8 220 -265 244 -284 9 -7 16 -18 16 -23 0
-5 20 -29 44 -52 24 -24 45 -48 47 -54 17 -47 769 -795 835 -830 13 -7 24 -17
24 -22 0 -5 18 -22 39 -37 21 -15 93 -74 159 -130 67 -57 124 -103 129 -103 4
0 16 -9 28 -20 27 -28 202 -160 210 -160 4 0 24 -13 44 -29 62 -49 394 -266
450 -294 9 -4 45 -25 81 -46 123 -73 534 -275 625 -307 27 -10 65 -26 84 -36
20 -10 41 -18 48 -18 7 0 32 -9 56 -19 23 -11 76 -29 117 -41 41 -12 80 -25
85 -29 14 -11 128 -41 190 -52 27 -4 82 -15 120 -23 39 -8 122 -20 185 -26 63
-7 124 -16 135 -20 33 -15 615 -50 817 -50 60 0 110 -4 113 -10 8 -12 1251
-14 1259 -2 3 5 61 12 128 15 140 7 299 31 343 51 17 8 58 22 93 31 34 10 62
21 62 25 0 4 27 17 61 29 33 13 77 34 97 47 19 14 46 27 59 30 13 4 23 9 23
13 0 4 26 18 58 31 31 13 59 27 62 30 3 4 30 17 60 30 30 12 66 28 80 35 14 7
54 20 90 30 36 9 73 21 83 26 55 30 335 35 452 9 22 -5 92 -20 156 -34 65 -13
125 -29 135 -35 11 -5 60 -20 109 -32 50 -13 92 -26 95 -29 3 -4 45 -17 95
-29 49 -12 94 -26 100 -31 5 -4 47 -18 93 -30 46 -11 91 -25 100 -31 21 -12
210 -57 317 -74 133 -23 478 -13 540 15 11 5 92 19 180 31 88 12 165 25 170
29 6 4 26 11 45 14 86 17 177 39 205 51 17 6 53 18 80 25 85 22 280 113 356
167 26 18 51 33 57 33 6 0 16 9 22 20 6 11 17 20 25 20 14 0 155 147 155 162
0 5 16 31 35 59 19 28 35 56 35 63 0 6 7 24 15 40 58 110 56 303 -2 364 -7 7
-13 18 -13 25 0 6 -20 37 -45 68 -25 32 -45 60 -45 63 0 3 -11 18 -25 33 -56
63 -65 74 -65 80 0 3 -12 21 -26 40 -40 53 -102 177 -115 230 -7 26 -16 53
-20 59 -21 27 -39 217 -39 414 0 202 23 526 39 565 5 11 19 94 31 185 12 91
25 170 28 175 4 6 19 78 33 160 57 316 80 431 88 445 5 9 18 76 30 150 12 74
26 144 31 155 5 11 19 94 30 185 12 91 25 172 30 181 5 9 18 126 30 260 12
134 26 253 30 264 19 44 50 768 50 1145 0 403 -34 1180 -52 1180 -4 0 -8 17
-8 38 0 67 -41 496 -50 517 -4 11 -18 99 -30 195 -11 96 -25 184 -29 195 -5
11 -19 88 -31 170 -12 83 -25 159 -30 170 -5 11 -19 76 -31 145 -12 69 -25
127 -28 130 -4 3 -17 59 -30 125 -13 66 -27 125 -31 130 -4 6 -18 57 -31 115
-12 58 -26 107 -29 110 -4 3 -17 48 -30 100 -12 52 -26 100 -30 105 -5 6 -18
44 -30 85 -12 41 -27 89 -35 105 -7 17 -20 57 -30 90 -9 33 -25 78 -35 100
-11 22 -25 61 -32 88 -6 26 -15 47 -19 47 -4 0 -17 33 -29 73 -12 39 -26 77
-30 82 -4 6 -18 46 -30 90 -12 44 -26 85 -30 90 -4 6 -17 46 -29 90 -12 44
-25 87 -30 95 -5 9 -18 60 -30 115 -12 55 -26 109 -31 120 -36 85 -50 340 -26
480 10 55 21 104 26 110 5 5 16 42 25 80 8 38 22 83 31 99 8 17 21 57 30 91 9
33 21 69 28 80 7 11 23 53 35 93 13 39 26 72 30 72 3 0 13 21 20 48 8 26 24
70 36 97 52 114 73 163 95 215 12 30 35 83 51 118 36 78 78 170 114 247 15 33
34 74 42 90 8 17 24 55 34 85 11 29 23 56 27 60 4 3 16 30 26 60 10 30 24 64
31 76 7 11 23 51 34 89 12 38 25 73 30 79 4 6 18 52 31 101 13 50 27 95 32
101 4 6 17 69 29 140 11 71 24 145 29 164 15 57 29 289 40 705 7 215 16 398
21 407 5 10 9 57 8 105 l0 88 -20 -60 c-11 -32 -23 -61 -28 -65 -4 -3 -18 -36
-31 -75 -13 -38 -28 -79 -35 -90 -7 -11 -20 -46 -30 -77 -9 -32 -21 -58 -26
-58 -5 0 -9 -7 -9 -15 0 -33 -110 -257 -200 -405 -12 -19 -32 -53 -45 -75 -48
-80 -152 -209 -237 -293 -158 -158 -242 -232 -250 -219 -4 6 -3 16 1 22 18 23
44 503 38 698 -6 192 -21 344 -37 382 -4 11 -16 58 -25 105 -17 87 -63 182
-97 204 -38 24 -88 -79 -88 -181 0 -23 -4 -44 -8 -47 -5 -3 -12 -61 -15 -128
-6 -123 -32 -294 -46 -313 -5 -5 -16 -44 -26 -85 -10 -41 -23 -88 -31 -105 -7
-16 -22 -57 -33 -90 -24 -72 -78 -205 -90 -219 -4 -6 -18 -39 -31 -73 -12 -35
-25 -63 -29 -63 -3 0 -15 -21 -25 -48 -10 -26 -25 -54 -33 -63 -8 -9 -24 -35
-36 -57 -59 -108 -74 -133 -131 -206 -80 -105 -124 -155 -166 -189 -266 -215
-343 -242 -642 -218 -157 12 -290 30 -298 41 -3 3 -43 14 -90 24 -47 10 -98
24 -115 31 -16 7 -64 24 -105 38 -137 45 -225 78 -230 86 -3 5 -23 14 -45 21
-74 24 -284 125 -505 243 -41 22 -93 49 -115 60 -22 11 -47 26 -55 32 -8 7
-35 23 -60 36 -25 13 -47 27 -50 30 -3 3 -21 14 -40 24 -19 10 -46 27 -60 37
-14 11 -40 26 -57 33 -18 8 -33 19 -33 24 0 6 -5 11 -10 11 -12 0 -133 78
-162 104 -10 9 -21 16 -25 16 -5 0 -30 18 -58 40 -27 22 -54 40 -60 40 -5 0
-18 9 -30 20 -11 11 -67 54 -125 95 -58 40 -112 80 -121 88 -8 7 -23 16 -32
20 -8 3 -35 18 -59 33 -62 40 -176 94 -198 94 -26 0 -29 -9 -19 -55 4 -22 20
-92 34 -155 13 -63 29 -122 34 -132 6 -9 20 -58 32 -110 12 -51 25 -97 29
-103 4 -5 18 -50 30 -99 12 -50 26 -97 31 -105 5 -9 18 -52 29 -96 12 -44 25
-89 29 -100 13 -30 28 -92 41 -165 7 -36 15 -69 20 -75 20 -25 50 -307 50
-471 0 -163 -27 -400 -49 -428 -4 -6 -18 -49 -31 -96 -13 -47 -26 -87 -30 -90
-3 -3 -14 -27 -24 -55 -9 -27 -28 -72 -41 -100 -13 -27 -45 -93 -70 -145 -25
-52 -71 -142 -102 -200 -112 -207 -133 -246 -154 -290 -12 -25 -25 -47 -28
-50 -4 -3 -18 -30 -30 -60 -13 -30 -27 -57 -30 -60 -4 -3 -18 -30 -30 -60 -13
-30 -27 -57 -31 -60 -3 -3 -17 -31 -30 -62 -13 -32 -27 -58 -32 -58 -4 0 -8
-7 -8 -15 0 -8 -17 -52 -39 -97 -21 -46 -42 -94 -46 -108 -4 -14 -14 -35 -21
-48 -8 -12 -24 -52 -35 -89 -12 -37 -27 -76 -34 -87 -7 -12 -21 -50 -31 -86
-10 -36 -21 -67 -24 -70 -4 -3 -17 -45 -29 -95 -12 -49 -26 -97 -31 -107 -5
-9 -19 -67 -30 -130 -12 -62 -25 -122 -30 -133 -13 -30 -50 -338 -50 -421 0
-27 -5 -55 -12 -62 -15 -15 -23 -886 -9 -1127 18 -323 54 -700 71 -740 4 -11
18 -83 30 -160 12 -77 25 -144 30 -150 4 -5 17 -59 30 -120 12 -60 26 -114 30
-120 4 -5 18 -53 30 -105 13 -52 27 -102 31 -110 5 -8 18 -51 30 -95 12 -44
25 -84 29 -90 4 -5 18 -46 30 -90 12 -44 25 -84 29 -90 5 -5 18 -44 31 -85 13
-41 26 -79 30 -85 4 -5 18 -44 31 -85 12 -41 25 -77 29 -80 3 -3 16 -39 29
-80 13 -41 27 -79 31 -85 4 -5 18 -44 30 -85 12 -41 26 -79 30 -85 4 -5 17
-41 28 -80 12 -38 32 -101 46 -138 14 -37 26 -76 26 -85 0 -9 7 -30 15 -45 8
-16 25 -70 37 -120 12 -51 25 -94 29 -97 4 -3 16 -50 28 -105 12 -55 26 -109
31 -120 11 -24 36 -148 45 -230 4 -33 13 -66 19 -74 15 -19 15 -432 0 -452 -6
-8 -18 -35 -28 -61 -21 -58 -93 -125 -143 -134 -53 -10 -186 2 -224 20 -19 8
-61 24 -94 36 -33 11 -89 36 -125 55 -36 19 -89 46 -117 60 -29 15 -53 30 -53
35 0 5 -10 12 -22 15 -13 4 -36 17 -53 29 -16 12 -47 32 -68 44 -20 12 -43 26
-50 32 -37 31 -138 100 -147 100 -5 0 -13 6 -17 13 -4 7 -21 21 -38 31 -16 11
-64 48 -106 83 -43 34 -79 63 -83 63 -3 0 -16 10 -30 23 -13 12 -39 34 -58 49
-18 14 -95 82 -171 150 -75 68 -157 139 -180 158 -131 106 -662 667 -794 838
-26 34 -72 92 -101 129 -29 36 -60 79 -68 94 -8 16 -18 29 -23 29 -4 0 -14 12
-21 28 -8 15 -29 48 -47 73 -18 26 -33 51 -33 57 0 6 -6 15 -14 19 -7 4 -26
32 -42 62 -16 29 -40 72 -54 96 -14 24 -38 67 -54 96 -16 30 -31 56 -35 59 -3
3 -17 28 -31 55 -14 28 -28 52 -31 55 -4 3 -19 29 -35 59 -81 153 -73 147 -94
66 -8 -27 -16 -52 -20 -55 -3 -3 -14 -32 -24 -65 -10 -33 -26 -78 -36 -100 -9
-22 -26 -74 -36 -115 -10 -41 -21 -77 -24 -80 -8 -7 -38 -186 -46 -281 -4 -40
-10 -78 -14 -84 -15 -19 -30 -392 -30 -735 0 -351 17 -841 30 -850 4 -3 10
-52 14 -110 12 -179 36 -424 46 -450 4 -14 18 -106 31 -205 12 -99 25 -182 29
-185 3 -3 16 -65 29 -139 12 -74 25 -140 30 -145 4 -6 18 -60 31 -121 12 -60
26 -114 30 -120 4 -5 18 -64 30 -130 13 -66 26 -122 30 -125 4 -3 17 -72 29
-155 13 -82 27 -158 32 -167 5 -10 9 -49 9 -88 0 -66 -1 -70 -23 -70 -13 0
-51 23 -88 54 -65 54 -229 235 -264 291 -11 17 -25 37 -33 45 -25 28 -102 135
-102 143 0 4 -7 15 -16 25 -25 27 -134 186 -134 195 0 4 -18 34 -40 66 -22 32
-40 64 -40 70 0 6 -8 19 -17 29 -18 19 -31 40 -86 142 -16 30 -33 60 -38 66
-22 27 -280 537 -364 719 -68 148 -84 184 -95 220 -7 22 -16 42 -19 45 -4 3
-17 37 -30 75 -13 39 -27 75 -32 80 -4 6 -17 44 -29 85 -13 41 -26 80 -31 85
-4 6 -18 47 -30 90 -11 44 -25 85 -29 90 -4 6 -17 51 -30 100 -12 50 -26 95
-30 100 -4 6 -18 64 -31 130 -13 66 -27 122 -30 125 -9 7 -38 217 -46 330 -3
52 -10 97 -14 101 -12 7 -29 689 -29 1149 0 431 18 1102 29 1110 4 3 11 52 15
110 9 148 35 371 45 395 5 11 19 85 31 164 12 79 25 151 30 160 5 9 18 70 31
136 12 66 25 125 29 130 4 6 18 60 29 120 12 61 26 118 31 127 5 10 19 61 31
115 11 54 24 103 29 108 4 6 17 53 29 105 12 52 26 99 31 105 4 5 18 53 31
105 13 52 26 97 29 100 4 3 17 43 29 90 13 47 29 99 36 115 7 17 21 59 31 95
9 36 20 70 25 75 4 6 17 44 29 85 12 41 27 89 35 105 7 17 20 57 29 90 10 33
23 74 31 90 7 17 21 57 31 90 10 33 21 62 24 65 4 3 14 34 24 70 10 36 24 76
31 90 8 14 23 57 35 95 12 39 25 75 30 80 4 6 18 44 30 85 13 41 29 84 35 95
7 11 21 47 31 80 10 33 21 62 24 65 3 3 14 32 24 65 10 33 24 69 30 80 7 11
23 52 37 90 13 39 26 72 29 75 3 3 12 25 20 50 7 25 23 68 35 95 49 110 55
126 55 140 0 8 4 15 8 15 5 0 14 19 21 43 7 23 23 65 35 92 43 93 56 126 56
140 0 8 4 15 9 15 5 0 19 29 31 65 12 36 26 65 31 65 5 0 9 8 9 17 0 9 16 51
36 92 77 161 308 627 316 637 6 8 37 -18 94 -80 181 -192 230 -242 274 -273
25 -18 48 -33 52 -33 11 0 10 38 -1 45 -5 3 -13 20 -17 38 -6 31 -34 97 -44
107 -3 3 -16 30 -30 60 -14 30 -27 57 -30 60 -3 3 -16 37 -29 75 -12 39 -27
79 -31 90 -30 70 -54 342 -45 510 8 154 34 382 45 403 5 10 18 70 30 135 11
65 25 126 30 135 5 9 19 60 30 112 12 52 25 100 30 105 4 6 18 46 30 90 12 44
25 85 29 90 5 6 18 44 31 85 13 41 26 77 30 80 3 3 12 25 20 50 7 25 23 68 35
95 49 110 55 126 55 140 0 8 3 15 8 15 4 0 15 21 26 48 27 70 267 552 274 552
4 0 16 21 26 48 11 26 27 55 38 65 10 10 18 23 18 30 0 7 16 36 35 64 19 29
35 56 35 61 0 5 9 20 19 34 11 13 29 43 41 66 12 23 26 42 30 42 5 0 12 10 16
22 7 23 85 143 109 169 8 9 15 19 15 24 0 4 18 32 40 61 22 29 40 56 40 60 0
4 7 14 15 23 8 9 51 66 95 126 110 150 115 156 328 413 136 165 310 342 627
641 49 47 349 287 400 321 12 8 43 30 68 48 25 17 48 32 51 32 3 0 14 7 24 16
26 23 140 94 152 94 5 0 18 8 28 18 24 22 54 39 232 129 80 41 165 81 190 90
25 8 47 18 50 22 3 4 36 17 75 30 38 12 74 26 80 31 6 5 49 18 95 30 47 12 90
26 95 30 12 10 202 50 234 50 12 0 21 4 21 9 0 4 60 17 133 27 188 27 751 27
942 1 72 -10 139 -22 150 -26 11 -5 71 -19 134 -31 62 -11 121 -25 130 -30 9
-5 59 -19 111 -31 52 -12 100 -26 107 -31 7 -6 18 -8 25 -6 7 3 -1 12 -19 22
-18 9 -33 21 -33 26 0 6 -5 10 -11 10 -6 0 -24 9 -40 21 -56 40 -267 153 -379
203 -30 13 -82 31 -115 40 -33 9 -68 21 -78 27 -24 13 -190 37 -350 50 -171
14 -714 22 -721 11z m3162 -5905 c-3 -46 -10 -92 -16 -103 -6 -10 -21 -64 -33
-119 -13 -55 -26 -102 -29 -105 -4 -3 -17 -43 -29 -90 -13 -47 -27 -89 -31
-95 -5 -5 -18 -46 -31 -90 -13 -44 -25 -82 -29 -85 -3 -3 -18 -41 -33 -85 -60
-169 -79 -220 -86 -230 -4 -5 -13 -26 -21 -45 -25 -68 -141 -312 -188 -393
-38 -67 -134 -171 -175 -191 -64 -30 -97 -1 -97 85 0 49 29 202 41 214 5 5 9
15 9 23 0 8 -22 -20 -50 -62 -27 -42 -50 -81 -50 -86 0 -6 -5 -10 -10 -10 -6
0 -14 -9 -18 -19 -10 -28 -139 -176 -191 -219 -97 -81 -166 -114 -251 -120
-100 -6 -141 9 -211 79 -32 32 -59 64 -59 69 0 6 -8 20 -18 31 -11 11 -25 39
-32 62 -7 23 -16 44 -20 47 -9 6 -50 169 -50 197 0 11 -4 23 -9 28 -12 14 -28
136 -42 325 -7 91 -16 167 -20 170 -4 3 -10 57 -14 121 l-7 117 293 4 c192 3
301 8 314 15 11 6 54 17 95 23 69 10 288 79 314 98 6 5 27 15 46 22 19 7 75
40 123 72 49 32 91 58 95 58 7 0 64 50 257 223 48 42 91 77 95 77 4 0 31 16
60 35 31 21 64 35 82 35 l31 0 -5 -83z"/>
<path d="M12175 18220 c-93 -13 -182 -64 -226 -130 -49 -71 -59 -106 -65 -220
-6 -95 16 -290 35 -314 5 -6 18 -60 29 -121 11 -60 24 -126 27 -145 13 -69 17
-150 7 -150 -5 0 -12 -23 -16 -51 -6 -45 -32 -116 -47 -129 -20 -18 -108 -190
-109 -212 0 -44 86 0 226 117 33 27 80 66 104 85 24 19 55 45 69 58 51 44 216
172 223 172 4 0 35 19 70 43 92 63 392 224 450 243 13 3 46 17 73 29 28 13 77
31 110 40 33 10 67 22 75 26 8 5 51 18 95 30 44 12 85 25 90 29 6 4 51 18 100
31 50 12 92 26 95 29 3 4 11 9 19 11 7 3 -35 29 -95 59 -60 30 -122 64 -139
75 -16 11 -50 29 -75 40 -25 10 -52 24 -60 30 -8 6 -35 20 -60 30 -25 10 -52
25 -61 32 -8 7 -18 13 -22 13 -3 0 -43 17 -89 38 -46 22 -99 45 -118 52 -19 7
-40 17 -45 21 -6 4 -33 15 -60 24 -28 9 -63 23 -80 31 -29 13 -189 57 -270 74
-67 13 -197 18 -260 10z"/>
<path d="M15990 18098 c-63 -5 -116 -14 -118 -19 -2 -5 -20 -9 -40 -9 -76 -1
-611 -96 -622 -110 -3 -3 -52 -16 -110 -29 -58 -13 -109 -26 -115 -30 -5 -4
-50 -18 -100 -31 -49 -12 -94 -26 -100 -30 -5 -4 -35 -16 -65 -28 -205 -76
-385 -216 -437 -340 -8 -20 -19 -39 -24 -42 -18 -12 -29 -149 -19 -218 6 -36
14 -71 18 -77 5 -5 19 -37 32 -70 13 -33 27 -62 30 -65 4 -3 14 -18 23 -35 39
-74 233 -269 332 -334 22 -14 44 -31 48 -38 4 -7 13 -13 18 -13 6 0 36 -18 66
-40 31 -22 62 -40 69 -40 7 0 17 -6 21 -12 4 -7 28 -23 53 -36 25 -13 79 -41
120 -62 41 -22 78 -40 82 -40 4 0 45 -17 90 -39 46 -21 94 -42 108 -46 14 -4
34 -13 45 -20 11 -6 54 -22 95 -35 41 -12 80 -26 85 -30 6 -5 38 -15 71 -24
119 -31 257 -15 343 38 20 12 44 25 54 29 9 3 17 11 17 17 0 5 6 10 13 10 32
0 307 273 307 305 0 5 9 16 20 23 11 7 20 16 20 22 0 5 23 43 50 83 28 41 61
94 73 118 13 24 31 58 40 74 26 47 73 155 91 210 9 28 23 64 30 80 8 17 22 64
31 105 9 41 20 82 25 91 18 35 32 228 28 383 -4 165 -4 162 -53 254 -8 15 -31
35 -52 44 -21 9 -54 24 -73 32 -19 9 -59 20 -89 26 -65 12 -371 11 -531 -2z"/>
</g>
</svg>
