<?xml version="1.0" standalone="no"?>
<!DOCTYPE svg PUBLIC "-//W3C//DTD SVG 20010904//EN"
 "http://www.w3.org/TR/2001/REC-SVG-20010904/DTD/svg10.dtd">
<svg version="1.0" xmlns="http://www.w3.org/2000/svg"
  viewBox="0 0 674.000000 689.000000"
 preserveAspectRatio="xMidYMid meet">
<g transform="translate(0.000000,689.000000) scale(0.100000,-0.100000)"
stroke="none">
<path d="M3025 6470 c-154 -17 -351 -52 -481 -85 -140 -36 -294 -91 -306 -109
-4 -6 -8 -8 -8 -4 0 24 -251 -124 -299 -176 -13 -14 -27 -26 -31 -26 -5 0 -34
-34 -64 -76 -99 -136 -91 7 -94 -1534 -2 -869 1 -1378 7 -1420 43 -279 401
-511 951 -620 517 -102 1166 -83 1635 47 153 42 404 145 425 173 3 4 21 15 40
24 66 31 183 143 229 220 75 124 70 35 71 1495 0 789 -4 1340 -10 1391 -14
126 -57 206 -164 306 -45 44 -101 88 -122 99 -21 11 -41 22 -44 26 -12 13
-152 79 -240 112 -167 62 -343 105 -590 143 -122 19 -770 28 -905 14z m835
-324 c368 -51 653 -146 815 -270 45 -35 60 -53 92 -106 l21 -37 -29 -52 c-97
-169 -469 -311 -974 -373 -157 -19 -622 -15 -780 6 -439 60 -765 177 -898 325
-68 76 -63 120 27 206 68 66 154 116 295 170 84 33 291 92 351 100 396 57 350
53 685 50 185 -2 319 -9 395 -19z m-1598 -977 c168 -69 387 -124 643 -160 182
-26 655 -37 842 -20 404 38 757 128 971 247 l62 35 0 -229 0 -228 -33 -47
c-119 -167 -536 -314 -1017 -357 -205 -18 -524 -12 -760 14 -327 37 -688 163
-827 290 -84 76 -83 73 -83 329 l0 225 64 -34 c35 -19 97 -48 138 -65z m-106
-843 c325 -161 733 -239 1254 -240 538 0 950 79 1282 245 43 22 80 39 83 39 3
0 5 -99 5 -220 0 -228 -4 -256 -44 -289 -9 -7 -13 -17 -10 -22 3 -5 0 -9 -5
-9 -6 0 -32 -16 -58 -36 -27 -20 -88 -56 -138 -80 -49 -24 -95 -47 -100 -51
-6 -4 -15 -9 -20 -9 -6 -1 -39 -11 -75 -22 -267 -84 -565 -125 -915 -124 -398
0 -722 52 -994 158 -134 52 -180 76 -241 123 -57 45 -70 57 -97 95 -22 29 -23
37 -23 258 0 125 2 228 4 228 2 0 44 -20 92 -44z m-48 -869 c90 -56 312 -136
502 -181 438 -104 1058 -112 1520 -20 231 46 420 108 569 185 41 22 76 39 78
39 9 0 2 -382 -8 -407 -49 -131 -361 -279 -739 -352 -227 -44 -626 -63 -885
-42 -457 37 -850 159 -1013 315 -71 67 -72 71 -72 291 0 107 2 195 5 195 3 0
22 -10 43 -23z"/>
<path d="M3465 2129 c-33 -5 -67 -12 -75 -15 -8 -4 -24 -9 -35 -11 -45 -8
-153 -57 -219 -100 -66 -42 -223 -190 -213 -200 3 -2 -5 -15 -18 -29 -57 -62
-125 -227 -145 -356 -16 -97 -8 -302 14 -383 49 -178 178 -361 332 -471 71
-51 249 -138 267 -131 9 3 13 58 15 194 l3 190 -52 34 c-102 65 -156 140 -199
273 -29 88 -23 199 15 311 15 43 31 83 36 89 5 6 34 44 65 84 31 39 60 72 63
72 4 0 21 13 38 28 62 57 207 99 307 88 225 -22 426 -275 427 -535 1 -48 -4
-107 -11 -132 -40 -153 -142 -291 -245 -334 -45 -18 -45 -18 -45 94 l0 108
-138 7 c-76 4 -146 4 -155 0 -16 -6 -17 -42 -17 -410 l0 -404 165 0 165 0 0
100 c0 72 4 102 13 104 97 30 131 42 182 68 33 17 70 36 82 42 13 6 23 14 23
19 0 4 4 7 8 7 13 0 81 67 146 145 33 39 64 73 70 77 6 4 8 8 4 8 -4 0 8 29
27 64 43 82 80 206 95 324 13 102 8 187 -22 332 -6 30 -11 65 -12 78 0 12 -4
22 -8 22 -3 0 -12 17 -19 38 -17 53 -58 132 -68 132 -5 0 -11 10 -15 23 -6 24
-121 170 -140 176 -15 6 -80 54 -84 64 -2 4 -10 7 -18 7 -8 0 -14 4 -14 8 0 9
-65 39 -95 44 -11 2 -22 6 -25 10 -8 10 -113 36 -195 48 -82 11 -196 11 -280
-1z"/>
<path d="M1861 2099 c-57 -11 -157 -58 -199 -94 -19 -16 -46 -47 -60 -69 -23
-36 -27 -54 -30 -143 -4 -85 0 -115 18 -175 56 -185 145 -295 430 -532 139
-114 188 -163 212 -210 l19 -38 -21 -23 c-41 -44 -94 -50 -382 -48 l-268 2 0
-169 0 -170 308 0 c336 0 372 4 480 59 248 125 314 398 154 640 -64 96 -191
213 -452 410 -53 40 -131 125 -136 148 -9 33 26 68 90 90 54 18 216 23 421 13
l100 -5 0 160 0 160 -320 1 c-176 1 -340 -2 -364 -7z"/>
<path d="M4612 1413 l3 -698 23 -57 c13 -31 36 -71 51 -87 16 -17 26 -32 24
-34 -9 -10 75 -69 125 -87 48 -18 78 -20 312 -20 l259 0 1 179 c0 99 -3 182
-8 185 -4 2 -61 6 -125 7 -176 3 -231 28 -277 124 -19 38 -20 69 -20 613 l0
572 -185 0 -186 0 3 -697z"/>
</g>
</svg>
