<?xml version="1.0" standalone="no"?>
<!DOCTYPE svg PUBLIC "-//W3C//DTD SVG 20010904//EN"
 "http://www.w3.org/TR/2001/REC-SVG-20010904/DTD/svg10.dtd">
<svg version="1.0" xmlns="http://www.w3.org/2000/svg"
  viewBox="0 0 700.000000 700.000000"
 preserveAspectRatio="xMidYMid meet">
<g transform="translate(0.000000,700.000000) scale(0.100000,-0.100000)"
stroke="none">
<path d="M3360 6664 c-19 -3 -42 -8 -50 -11 -8 -3 -20 -7 -26 -8 -6 -2 -31
-14 -55 -29 -24 -14 -68 -37 -96 -52 -29 -15 -53 -30 -53 -34 0 -7 -37 -21
-49 -19 -2 0 -7 -3 -10 -8 -8 -11 -42 -32 -63 -39 -10 -4 -18 -10 -18 -14 0
-4 -12 -11 -27 -15 -16 -3 -35 -13 -43 -20 -17 -15 -85 -54 -150 -85 -25 -12
-55 -31 -67 -43 -13 -11 -23 -17 -23 -12 0 4 -9 -2 -19 -14 -11 -13 -25 -20
-30 -17 -6 4 -19 -2 -30 -13 -10 -10 -30 -22 -43 -26 -12 -4 -37 -18 -55 -31
-17 -13 -36 -24 -41 -24 -5 0 -15 -7 -22 -15 -7 -8 -19 -15 -27 -15 -8 0 -31
-12 -50 -27 -36 -28 -123 -77 -155 -89 -10 -3 -18 -10 -18 -14 0 -5 -13 -11
-30 -15 -16 -4 -30 -10 -30 -14 0 -4 -21 -18 -47 -31 -27 -12 -58 -32 -70 -43
-13 -11 -23 -17 -23 -13 0 4 -12 -1 -28 -11 -53 -35 -67 -44 -97 -57 -16 -8
-42 -23 -56 -34 -14 -12 -38 -24 -52 -27 -15 -4 -27 -11 -27 -15 0 -4 -8 -10
-18 -14 -24 -8 -56 -29 -65 -43 -4 -7 -18 -13 -31 -13 -13 0 -29 -6 -35 -14
-7 -8 -31 -24 -54 -35 -23 -12 -55 -30 -72 -41 -16 -11 -38 -23 -47 -26 -10
-4 -18 -10 -18 -14 0 -4 -12 -11 -27 -15 -15 -3 -32 -14 -39 -23 -7 -9 -16
-17 -21 -18 -12 -1 -47 -17 -53 -23 -8 -9 -41 -28 -97 -56 -29 -14 -53 -29
-53 -34 0 -8 -35 -22 -44 -18 -1 1 -18 -9 -37 -23 -19 -14 -52 -34 -74 -45
-45 -22 -155 -123 -155 -142 0 -7 -4 -13 -8 -13 -9 0 -52 -81 -52 -98 0 -6 -5
-12 -11 -14 -5 -2 -13 -22 -16 -46 -3 -23 -10 -42 -14 -42 -5 0 -9 -621 -9
-1415 0 -794 4 -1415 9 -1415 4 0 11 -19 14 -41 3 -23 10 -45 15 -48 6 -3 14
-19 17 -34 4 -15 12 -27 17 -27 6 0 8 -6 5 -14 -3 -8 7 -32 22 -53 33 -45 121
-133 133 -133 5 0 42 -20 82 -45 41 -25 77 -45 79 -45 4 0 370 -212 397 -230
8 -6 24 -14 36 -19 19 -8 136 -76 174 -101 8 -6 22 -13 30 -17 8 -4 47 -26 86
-50 39 -24 74 -43 77 -43 2 0 52 -29 111 -65 58 -36 110 -65 115 -65 5 0 16
-6 23 -13 7 -7 24 -18 38 -24 14 -7 48 -26 75 -42 28 -17 59 -35 71 -40 19 -8
137 -77 174 -101 8 -6 22 -13 30 -17 8 -4 50 -28 93 -55 43 -26 80 -48 83 -48
2 0 36 -19 76 -43 40 -24 80 -46 88 -50 8 -4 24 -13 35 -20 11 -7 51 -30 90
-52 38 -22 77 -44 87 -50 269 -159 295 -169 461 -163 108 4 129 7 181 32 50
24 154 82 206 116 8 6 22 13 30 17 8 4 44 24 79 46 35 21 74 43 85 48 12 5 44
23 71 40 28 16 61 35 75 42 14 6 27 14 30 18 3 3 39 24 80 47 41 23 93 53 115
67 22 14 47 28 55 32 8 4 44 24 79 46 35 21 74 43 85 48 12 5 28 13 36 19 36
23 155 93 174 101 12 6 30 15 41 22 11 7 83 49 160 93 77 45 156 91 175 103
19 11 42 24 50 28 17 8 158 89 180 103 8 6 22 13 30 17 8 4 59 33 113 65 53
32 99 58 102 58 3 0 29 16 59 35 30 19 58 35 61 35 3 0 24 12 48 27 47 31 59
38 136 78 111 59 197 171 247 324 l24 74 0 1381 c0 1308 -1 1384 -18 1441 -25
80 -52 137 -74 153 -10 7 -18 18 -18 24 0 18 -127 137 -154 144 -14 3 -26 10
-26 14 0 4 -8 11 -17 14 -21 7 -47 23 -88 52 -17 12 -40 24 -52 28 -11 4 -27
13 -33 21 -7 8 -22 15 -34 15 -12 0 -27 9 -34 21 -7 12 -16 18 -19 15 -3 -3
-20 5 -37 18 -29 21 -59 36 -72 35 -3 0 -13 9 -23 20 -9 11 -29 23 -44 26 -15
4 -27 11 -27 15 0 4 -8 11 -17 14 -28 10 -115 59 -151 84 -17 13 -32 20 -32
17 0 -3 -15 4 -32 17 -36 25 -123 74 -150 84 -10 3 -18 10 -18 14 0 4 -12 11
-27 15 -15 3 -35 16 -45 27 -10 12 -18 17 -18 13 0 -5 -11 2 -25 15 -14 13
-28 20 -32 17 -3 -4 -17 3 -30 15 -13 12 -23 18 -23 14 0 -4 -14 4 -31 18 -17
14 -35 26 -41 26 -6 0 -26 11 -44 25 -18 14 -39 25 -48 25 -8 0 -21 6 -28 13
-21 19 -48 35 -105 62 -29 14 -53 29 -53 34 0 8 -35 22 -44 18 -1 -1 -19 10
-39 26 -19 15 -39 27 -42 27 -4 0 -20 9 -36 21 -16 11 -29 18 -29 14 0 -3 -15
5 -33 19 -19 15 -39 26 -45 26 -7 0 -12 5 -12 11 0 6 -6 9 -12 6 -7 -2 -20 4
-28 13 -8 9 -26 21 -40 25 -14 4 -27 10 -30 14 -8 9 -39 27 -97 56 -29 14 -53
29 -53 34 0 5 -8 11 -17 15 -10 3 -25 10 -33 15 -8 5 -22 12 -30 16 -20 8 -49
26 -86 52 -17 12 -42 25 -56 28 -15 4 -29 13 -32 21 -3 8 -15 14 -27 14 -12 0
-30 10 -40 22 -11 11 -19 18 -19 15 0 -4 -16 2 -36 14 -20 11 -39 18 -42 15
-3 -3 -11 -1 -17 4 -13 11 -170 21 -225 14z m356 -1299 c27 -8 68 -15 90 -15
23 0 58 -7 77 -15 20 -8 47 -15 61 -15 13 0 37 -7 52 -15 16 -8 39 -15 51 -15
12 0 24 -4 27 -9 3 -5 18 -12 33 -15 16 -4 60 -22 98 -40 39 -19 77 -37 85
-40 8 -3 24 -11 35 -18 33 -19 49 -27 70 -38 11 -6 34 -19 50 -30 17 -11 38
-23 48 -26 9 -4 17 -10 17 -15 0 -6 8 -12 18 -16 37 -14 252 -195 290 -245 7
-9 27 -33 45 -52 17 -19 48 -54 67 -77 19 -23 40 -47 45 -53 6 -6 16 -23 22
-38 7 -16 17 -28 23 -28 5 0 10 -5 10 -10 0 -6 11 -28 25 -51 26 -40 26 -59 0
-59 -7 0 -20 -6 -27 -12 -7 -7 -33 -23 -58 -36 -25 -13 -58 -32 -75 -42 -16
-10 -52 -31 -80 -45 -54 -29 -84 -46 -130 -75 -16 -10 -50 -29 -75 -42 -25
-13 -51 -29 -58 -35 -7 -7 -18 -13 -23 -13 -5 0 -31 -15 -57 -34 -27 -18 -58
-37 -70 -40 -12 -4 -22 -12 -22 -17 0 -5 -9 -9 -19 -9 -11 0 -22 -4 -26 -9 -3
-6 -19 -16 -35 -25 -30 -14 -31 -14 -57 22 -56 75 -109 137 -142 167 -19 16
-41 38 -50 48 -8 9 -21 17 -28 17 -7 0 -13 5 -13 10 0 6 -10 15 -22 21 -34 15
-68 35 -81 48 -6 6 -19 11 -28 11 -9 0 -22 7 -29 15 -7 8 -23 15 -35 15 -12 0
-28 7 -35 15 -7 8 -23 15 -37 15 -13 0 -36 6 -51 14 -74 37 -410 37 -484 0
-15 -8 -37 -14 -50 -14 -13 0 -32 -7 -42 -15 -11 -8 -30 -15 -42 -15 -13 0
-26 -5 -29 -11 -4 -5 -17 -15 -28 -20 -12 -5 -35 -18 -52 -29 -16 -11 -39 -24
-50 -29 -11 -5 -34 -22 -51 -38 -17 -15 -50 -43 -72 -62 -23 -19 -42 -38 -42
-42 0 -4 -16 -25 -35 -46 -19 -21 -35 -44 -35 -50 0 -7 -4 -13 -10 -13 -5 0
-10 -7 -10 -15 0 -8 -4 -15 -8 -15 -10 0 -82 -143 -82 -163 0 -7 -4 -17 -10
-23 -5 -5 -14 -30 -19 -54 -5 -25 -15 -63 -20 -85 -14 -52 -14 -288 0 -340 5
-22 15 -60 20 -85 5 -24 14 -49 19 -54 6 -6 10 -16 10 -23 0 -34 91 -195 155
-272 63 -78 190 -183 265 -220 25 -12 52 -26 60 -31 33 -19 89 -40 107 -40 10
0 23 -4 29 -10 43 -43 485 -43 528 0 6 6 19 10 29 10 10 0 31 6 45 14 15 7 50
24 77 36 128 59 246 158 344 287 l61 81 30 -14 c16 -9 32 -19 35 -25 4 -5 15
-9 26 -9 10 0 19 -4 19 -10 0 -5 11 -12 25 -16 13 -3 30 -13 37 -21 7 -8 21
-19 33 -24 11 -5 34 -18 50 -29 17 -10 53 -31 80 -45 55 -29 85 -46 130 -75
17 -11 53 -31 80 -45 28 -14 64 -35 80 -45 17 -10 50 -29 75 -42 25 -13 47
-26 50 -30 3 -4 18 -11 33 -17 l27 -10 -27 -48 c-14 -27 -46 -74 -69 -106 -24
-31 -44 -59 -44 -61 0 -14 -223 -243 -285 -293 -73 -59 -169 -126 -240 -168
-107 -63 -261 -135 -287 -135 -8 0 -18 -4 -24 -9 -22 -20 -227 -77 -354 -99
-180 -30 -540 -21 -700 18 -52 13 -241 70 -270 82 -14 5 -38 16 -55 23 -90 37
-239 116 -303 160 -40 27 -82 55 -94 62 -52 29 -234 201 -318 302 -25 29 -50
59 -55 65 -13 13 -105 152 -121 181 -6 11 -30 50 -53 87 -22 37 -41 72 -41 78
0 6 -4 18 -9 28 -25 47 -71 164 -78 202 -3 14 -11 39 -19 57 -8 17 -14 46 -14
65 0 19 -4 38 -10 44 -5 5 -14 48 -20 94 -5 47 -14 122 -20 168 -16 128 -6
282 31 492 22 126 29 154 39 164 5 5 10 21 10 36 1 14 7 36 15 50 8 14 14 35
15 48 0 12 4 22 9 22 4 0 14 20 21 45 7 25 17 48 21 51 5 3 9 11 9 19 0 16 80
158 92 163 4 2 8 9 8 14 0 15 103 168 112 168 5 0 8 5 8 10 0 6 8 18 18 28 37
39 78 87 80 95 2 7 31 36 128 127 27 25 80 68 119 97 38 29 75 56 80 61 6 4
17 11 25 15 8 4 29 16 45 27 17 11 40 24 52 29 11 5 24 15 28 20 3 6 14 11 24
11 10 0 24 7 31 15 7 8 20 15 30 15 9 0 25 9 35 20 10 11 21 17 26 15 4 -3 23
4 41 15 18 11 39 20 46 20 8 0 28 6 45 13 62 26 103 39 151 48 27 4 54 13 60
19 5 5 33 10 61 11 27 0 68 6 90 14 61 20 475 20 541 0z m1092 -1412 c-4 -43
-10 -97 -12 -120 l-6 -43 94 0 94 0 12 120 13 120 74 0 73 0 -6 -57 c-4 -32
-10 -86 -13 -120 l-7 -63 68 0 68 0 0 -70 0 -70 -74 0 -74 0 -6 -42 c-3 -24
-8 -76 -12 -115 l-7 -73 67 0 66 0 0 -65 0 -64 -72 -3 -73 -3 -6 -45 c-4 -25
-10 -84 -14 -132 l-7 -88 -75 0 -75 0 6 38 c3 20 8 69 11 107 4 39 9 82 11 98
l6 27 -95 0 -94 0 -6 -42 c-3 -24 -9 -85 -13 -135 l-7 -93 -75 0 -75 0 6 53
c4 28 9 89 13 135 l7 82 -67 0 -66 0 0 65 0 65 74 0 73 0 12 100 c6 56 11 107
11 115 0 12 -15 15 -65 15 l-65 0 0 70 0 70 74 0 73 0 7 78 c3 42 9 96 12 120
l6 42 72 0 72 0 -8 -77z"/>
<path d="M4777 3628 c-3 -13 -9 -65 -13 -115 l-7 -93 91 0 90 0 6 28 c3 15 8
66 12 115 l6 87 -90 0 c-85 0 -90 -1 -95 -22z"/>
</g>
</svg>
